# xmcd
#
# Track frame offsets: 
#        150
#        28460
#        61230
#        88962
#        115282
#        145560
#        171107
#        204305
#        225022
#        251192
#        277920
#        305062
#        331832
#
# Disc length: 4781 seconds
#
# Revision: 1
# Processed by: cddbd v1.5.2PL0 Copyright (c) Steve Scherf et al.
# Submitted via: ExactAudioCopy v0.99pb4
#
DISCID=b212ab0d
DTITLE=WDR Big Band Köln - Very Personal Vol. 1
DYEAR=2002
DGENRE=Jazz
TTITLE0=Ulla in Africa
TTITLE1=Down to earth
TTITLE2=Funklaus
TTITLE3=You make me feel so young
TTITLE4=Let's fall in love
TTITLE5=Samba du soleil
TTITLE6=Eurometrix
TTITLE7=Taking a chance on love
TTITLE8=Strange times
TTITLE9=Dreamin' on the Hudson
TTITLE10=Lights out sweetheart
TTITLE11=In the hills
TTITLE12=Tesoro
EXTD=YEAR: 2002
EXTT0=
EXTT1=
EXTT2=
EXTT3=
EXTT4=
EXTT5=
EXTT6=
EXTT7=
EXTT8=
EXTT9=
EXTT10=
EXTT11=
EXTT12=
PLAYORDER=
